<svg width="30" height="25" viewBox="0 0 31 27" fill="none" xmlns="http://www.w3.org/2000/svg">
<path d="M10 25.75C10.6213 25.75 11.125 25.2463 11.125 24.625C11.125 24.0037 10.6213 23.5 10 23.5C9.37868 23.5 8.875 24.0037 8.875 24.625C8.875 25.2463 9.37868 25.75 10 25.75Z" stroke="white" stroke-width="2" stroke-linecap="round" stroke-linejoin="round"/>
<path d="M25.75 25.75C26.3713 25.75 26.875 25.2463 26.875 24.625C26.875 24.0037 26.3713 23.5 25.75 23.5C25.1287 23.5 24.625 24.0037 24.625 24.625C24.625 25.2463 25.1287 25.75 25.75 25.75Z" stroke="white" stroke-width="2" stroke-linecap="round" stroke-linejoin="round"/>
<path d="M1 1H5.5L8.875 20.125H26.875" stroke="white" stroke-width="2" stroke-linecap="round" stroke-linejoin="round"/>
<path d="M8.875 15.625H26.4138C26.5438 15.6251 26.6699 15.5801 26.7706 15.4977C26.8712 15.4152 26.9402 15.3005 26.9657 15.1729L28.9907 5.04789C29.007 4.96625 29.0051 4.88199 28.9849 4.80121C28.9647 4.72043 28.9269 4.64514 28.874 4.58076C28.8212 4.51638 28.7548 4.46453 28.6795 4.42895C28.6042 4.39337 28.522 4.37494 28.4387 4.375H6.625" stroke="white" stroke-width="2" stroke-linecap="round" stroke-linejoin="round"/>
</svg>
